<?xml version="1.0" encoding="UTF-8"?>
<!DOCTYPE svg PUBLIC "-//W3C//DTD SVG 1.1//EN" "http://www.w3.org/Graphics/SVG/1.1/DTD/svg11.dtd">
<svg xmlns="http://www.w3.org/2000/svg" version="1.1" width="540px" height="540px" style="shape-rendering:geometricPrecision; text-rendering:geometricPrecision; image-rendering:optimizeQuality; fill-rule:evenodd; clip-rule:evenodd" xmlns:xlink="http://www.w3.org/1999/xlink">
<g><path style="opacity:0.914" fill="#ffffff" d="M 49.5,88.5 C 61.1667,88.5 72.8333,88.5 84.5,88.5C 84.5,91.1667 84.5,93.8333 84.5,96.5C 75.5,96.5 66.5,96.5 57.5,96.5C 57.5,105.833 57.5,115.167 57.5,124.5C 54.8333,124.5 52.1667,124.5 49.5,124.5C 49.5,112.5 49.5,100.5 49.5,88.5 Z"/></g>
<g><path style="opacity:0.887" fill="#ffffff" d="M 136.5,88.5 C 154.5,88.5 172.5,88.5 190.5,88.5C 190.5,91.1667 190.5,93.8333 190.5,96.5C 172.5,96.5 154.5,96.5 136.5,96.5C 136.5,93.8333 136.5,91.1667 136.5,88.5 Z"/></g>
<g><path style="opacity:0.887" fill="#ffffff" d="M 242.5,88.5 C 260.5,88.5 278.5,88.5 296.5,88.5C 296.5,91.1667 296.5,93.8333 296.5,96.5C 278.5,96.5 260.5,96.5 242.5,96.5C 242.5,93.8333 242.5,91.1667 242.5,88.5 Z"/></g>
<g><path style="opacity:0.891" fill="#ffffff" d="M 348.5,88.5 C 366.5,88.5 384.5,88.5 402.5,88.5C 402.5,91.1667 402.5,93.8333 402.5,96.5C 384.5,96.5 366.5,96.5 348.5,96.5C 348.5,93.8333 348.5,91.1667 348.5,88.5 Z"/></g>
<g><path style="opacity:0.901" fill="#ffffff" d="M 454.5,88.5 C 466.167,88.5 477.833,88.5 489.5,88.5C 489.5,100.5 489.5,112.5 489.5,124.5C 486.833,124.5 484.167,124.5 481.5,124.5C 481.5,115.167 481.5,105.833 481.5,96.5C 472.5,96.5 463.5,96.5 454.5,96.5C 454.5,93.8333 454.5,91.1667 454.5,88.5 Z"/></g>
<g><path style="opacity:0.911" fill="#ffffff" d="M 290.5,138.5 C 302.214,136.931 310.048,141.598 314,152.5C 314.667,170.167 314.667,187.833 314,205.5C 309.185,216.896 300.685,221.063 288.5,218C 281.464,215.631 277.297,210.798 276,203.5C 275.333,187.167 275.333,170.833 276,154.5C 277.91,146.427 282.744,141.094 290.5,138.5 Z M 292.5,150.5 C 296.355,149.845 299.188,151.179 301,154.5C 301.667,170.833 301.667,187.167 301,203.5C 296.601,207.654 292.601,207.321 289,202.5C 288.333,186.833 288.333,171.167 289,155.5C 289.997,153.677 291.164,152.01 292.5,150.5 Z"/></g>
<g><path style="opacity:0.902" fill="#ffffff" d="M 337.5,138.5 C 354.699,137.855 362.699,146.188 361.5,163.5C 357.158,163.739 352.824,164.073 348.5,164.5C 348.854,160.363 348.354,156.363 347,152.5C 343.925,149.941 340.925,149.941 338,152.5C 336.86,161.237 336.36,170.07 336.5,179C 336.667,187.167 336.833,195.333 337,203.5C 340.004,207 343.337,207.333 347,204.5C 348.416,198.285 348.916,191.952 348.5,185.5C 346.167,185.5 343.833,185.5 341.5,185.5C 341.5,181.5 341.5,177.5 341.5,173.5C 348.09,173.189 354.59,173.522 361,174.5C 361.667,183.833 361.667,193.167 361,202.5C 357.875,216.157 349.375,221.324 335.5,218C 329.693,216.193 325.859,212.36 324,206.5C 323.333,188.167 323.333,169.833 324,151.5C 325.881,144.332 330.381,139.999 337.5,138.5 Z"/></g>
<g><path style="opacity:0.909" fill="#ffffff" d="M 384.5,138.5 C 396.738,136.945 404.571,141.945 408,153.5C 408.667,170.167 408.667,186.833 408,203.5C 406.684,210.815 402.517,215.648 395.5,218C 382.3,221.09 373.8,216.256 370,203.5C 369.333,186.833 369.333,170.167 370,153.5C 371.672,145.33 376.505,140.33 384.5,138.5 Z M 386.5,150.5 C 390.355,149.845 393.188,151.179 395,154.5C 395.667,170.5 395.667,186.5 395,202.5C 392.369,206.629 388.869,207.462 384.5,205C 383.874,204.25 383.374,203.416 383,202.5C 382.333,186.833 382.333,171.167 383,155.5C 383.997,153.677 385.164,152.01 386.5,150.5 Z"/></g>
<g><path style="opacity:0.902" fill="#ffffff" d="M 126.5,139.5 C 139.167,139.5 151.833,139.5 164.5,139.5C 164.5,143.5 164.5,147.5 164.5,151.5C 160.167,151.5 155.833,151.5 151.5,151.5C 151.5,173.5 151.5,195.5 151.5,217.5C 147.167,217.5 142.833,217.5 138.5,217.5C 138.173,195.591 138.506,173.758 139.5,152C 135.179,151.501 130.846,151.334 126.5,151.5C 126.5,147.5 126.5,143.5 126.5,139.5 Z"/></g>
<g><path style="opacity:0.892" fill="#ffffff" d="M 169.5,139.5 C 173.833,139.5 178.167,139.5 182.5,139.5C 182.333,160.836 182.5,182.169 183,203.5C 187.974,207.905 191.808,207.072 194.5,201C 193.507,180.576 193.173,160.076 193.5,139.5C 197.833,139.5 202.167,139.5 206.5,139.5C 206.667,161.836 206.5,184.169 206,206.5C 203.05,214.981 197.05,219.315 188,219.5C 178.234,218.958 172.234,213.958 170,204.5C 169.5,182.836 169.333,161.169 169.5,139.5 Z"/></g>
<g><path style="opacity:0.9" fill="#ffffff" d="M 238.5,139.5 C 242.833,139.5 247.167,139.5 251.5,139.5C 251.5,161.5 251.5,183.5 251.5,205.5C 257.833,205.5 264.167,205.5 270.5,205.5C 270.5,209.833 270.5,214.167 270.5,218.5C 259.833,218.5 249.167,218.5 238.5,218.5C 238.5,192.167 238.5,165.833 238.5,139.5 Z"/></g>
<g><path style="opacity:0.883" fill="#ffffff" d="M 49.5,181.5 C 52.1667,181.5 54.8333,181.5 57.5,181.5C 57.5,201.5 57.5,221.5 57.5,241.5C 54.8333,241.5 52.1667,241.5 49.5,241.5C 49.5,221.5 49.5,201.5 49.5,181.5 Z"/></g>
<g><path style="opacity:0.87" fill="#ffffff" d="M 481.5,181.5 C 484.167,181.5 486.833,181.5 489.5,181.5C 489.5,201.5 489.5,221.5 489.5,241.5C 486.833,241.5 484.167,241.5 481.5,241.5C 481.5,221.5 481.5,201.5 481.5,181.5 Z"/></g>
<g><path style="opacity:0.887" fill="#ffffff" d="M 390.5,235.5 C 397.863,235.169 405.197,235.503 412.5,236.5C 406.714,243.241 401.047,250.074 395.5,257C 390.25,257.193 385.083,257.693 380,258.5C 379.333,257.5 379.333,256.5 380,255.5C 383.798,248.901 387.298,242.235 390.5,235.5 Z"/></g>
<g><path style="opacity:0.943" fill="#ffffff" d="M 238.5,262.5 C 257.259,259.457 270.425,266.457 278,283.5C 279.635,313.785 279.969,344.119 279,374.5C 278.191,378.76 276.691,382.76 274.5,386.5C 277.521,388.423 280.854,389.423 284.5,389.5C 284.192,395.913 283.359,402.246 282,408.5C 277.017,409.24 272.183,408.407 267.5,406C 264.322,403.486 261.156,400.986 258,398.5C 243.301,402.72 230.634,399.387 220,388.5C 217.163,383.828 215.163,378.828 214,373.5C 213.333,345.5 213.333,317.5 214,289.5C 216.246,274.937 224.413,265.937 238.5,262.5 Z M 241.5,282.5 C 251.682,280.324 257.182,284.324 258,294.5C 258.667,318.833 258.667,343.167 258,367.5C 256.92,378.581 251.087,382.414 240.5,379C 238.19,377.363 236.69,375.196 236,372.5C 235.333,345.167 235.333,317.833 236,290.5C 236.49,286.854 238.323,284.187 241.5,282.5 Z"/></g>
<g><path style="opacity:0.934" fill="#ffffff" d="M 153.5,264.5 C 162.932,263.878 172.099,264.544 181,266.5C 188.695,310.475 196.195,354.475 203.5,398.5C 196.245,398.813 189.079,398.48 182,397.5C 180.136,387.595 178.636,377.928 177.5,368.5C 170.5,368.5 163.5,368.5 156.5,368.5C 155.141,378.177 153.641,387.843 152,397.5C 145.248,398.645 138.414,398.811 131.5,398C 131.043,397.586 130.709,397.086 130.5,396.5C 138.733,351.732 146.399,307.732 153.5,264.5 Z M 166.5,297.5 C 169.319,314.018 171.986,330.684 174.5,347.5C 169.544,348.494 164.544,348.827 159.5,348.5C 162.114,331.538 164.447,314.538 166.5,297.5 Z"/></g>
<g><path style="opacity:0.927" fill="#ffffff" d="M 296.5,264.5 C 303.5,264.5 310.5,264.5 317.5,264.5C 317.333,300.835 317.5,337.168 318,373.5C 319.78,377.793 322.946,379.793 327.5,379.5C 332.966,380.023 336.466,377.689 338,372.5C 338.5,336.502 338.667,300.502 338.5,264.5C 345.833,264.5 353.167,264.5 360.5,264.5C 360.962,302.201 360.462,339.868 359,377.5C 354.566,392.903 344.232,400.57 328,400.5C 311.008,400.197 300.674,391.863 297,375.5C 296.5,338.502 296.333,301.502 296.5,264.5 Z"/></g>
<g><path style="opacity:0.953" fill="#ffffff" d="M 379.5,264.5 C 386.5,264.5 393.5,264.5 400.5,264.5C 400.5,309.167 400.5,353.833 400.5,398.5C 393.5,398.5 386.5,398.5 379.5,398.5C 379.5,353.833 379.5,309.167 379.5,264.5 Z"/></g>
<g><path style="opacity:0.883" fill="#ffffff" d="M 49.5,298.5 C 52.1667,298.5 54.8333,298.5 57.5,298.5C 57.5,318.5 57.5,338.5 57.5,358.5C 54.8333,358.5 52.1667,358.5 49.5,358.5C 49.5,338.5 49.5,318.5 49.5,298.5 Z"/></g>
<g><path style="opacity:0.87" fill="#ffffff" d="M 481.5,298.5 C 484.167,298.5 486.833,298.5 489.5,298.5C 489.5,318.5 489.5,338.5 489.5,358.5C 486.833,358.5 484.167,358.5 481.5,358.5C 481.5,338.5 481.5,318.5 481.5,298.5 Z"/></g>
<g><path style="opacity:0.911" fill="#ffffff" d="M 49.5,415.5 C 52.1667,415.5 54.8333,415.5 57.5,415.5C 57.5,424.5 57.5,433.5 57.5,442.5C 66.5,442.5 75.5,442.5 84.5,442.5C 84.5,445.167 84.5,447.833 84.5,450.5C 72.8333,450.5 61.1667,450.5 49.5,450.5C 49.5,438.833 49.5,427.167 49.5,415.5 Z"/></g>
<g><path style="opacity:0.898" fill="#ffffff" d="M 481.5,415.5 C 484.167,415.5 486.833,415.5 489.5,415.5C 489.5,427.167 489.5,438.833 489.5,450.5C 477.833,450.5 466.167,450.5 454.5,450.5C 454.5,447.833 454.5,445.167 454.5,442.5C 463.5,442.5 472.5,442.5 481.5,442.5C 481.5,433.5 481.5,424.5 481.5,415.5 Z"/></g>
<g><path style="opacity:0.858" fill="#ffffff" d="M 136.5,442.5 C 154.5,442.5 172.5,442.5 190.5,442.5C 190.5,445.167 190.5,447.833 190.5,450.5C 172.5,450.5 154.5,450.5 136.5,450.5C 136.5,447.833 136.5,445.167 136.5,442.5 Z"/></g>
<g><path style="opacity:0.858" fill="#ffffff" d="M 242.5,442.5 C 260.5,442.5 278.5,442.5 296.5,442.5C 296.5,445.167 296.5,447.833 296.5,450.5C 278.5,450.5 260.5,450.5 242.5,450.5C 242.5,447.833 242.5,445.167 242.5,442.5 Z"/></g>
<g><path style="opacity:0.862" fill="#ffffff" d="M 348.5,442.5 C 366.5,442.5 384.5,442.5 402.5,442.5C 402.5,445.167 402.5,447.833 402.5,450.5C 384.5,450.5 366.5,450.5 348.5,450.5C 348.5,447.833 348.5,445.167 348.5,442.5 Z"/></g>
</svg>
