<?xml version="1.0" encoding="UTF-8"?>
<!DOCTYPE svg PUBLIC "-//W3C//DTD SVG 1.1//EN" "http://www.w3.org/Graphics/SVG/1.1/DTD/svg11.dtd">
<svg xmlns="http://www.w3.org/2000/svg" version="1.1" width="2856px" height="2856px" style="shape-rendering:geometricPrecision; text-rendering:geometricPrecision; image-rendering:optimizeQuality; fill-rule:evenodd; clip-rule:evenodd" xmlns:xlink="http://www.w3.org/1999/xlink">
<g><path style="opacity:0.982" fill="#000000" d="M 1126.5,465.5 C 1133.22,464.751 1139.55,465.918 1145.5,469C 1152.43,474.093 1158.1,480.259 1162.5,487.5C 1121.06,589.177 1096.9,694.844 1090,804.5C 1087.46,849.129 1086.12,893.795 1086,938.5C 1082.72,946.443 1077.89,953.277 1071.5,959C 1058.17,965.043 1047.01,962.21 1038,950.5C 1034.44,946.624 1032.27,942.124 1031.5,937C 1033.77,882.499 1035.6,827.999 1037,773.5C 977.123,703.313 928.956,625.48 892.5,540C 896.461,529.037 903.961,521.87 915,518.5C 927.294,521.112 937.294,527.445 945,537.5C 951.579,546.325 957.913,555.325 964,564.5C 985.333,601.167 1006.67,637.833 1028,674.5C 1034.61,684.777 1041.61,694.777 1049,704.5C 1055.88,669.215 1062.55,633.881 1069,598.5C 1075.18,567.112 1083.85,536.445 1095,506.5C 1100.06,494.037 1106.89,482.703 1115.5,472.5C 1118.76,469.38 1122.42,467.047 1126.5,465.5 Z"/></g>
<g><path style="opacity:0.984" fill="#000000" d="M 1912.5,523.5 C 1921.5,523.5 1930.5,523.5 1939.5,523.5C 1939.67,538.504 1939.5,553.504 1939,568.5C 1900.58,572.284 1869.91,589.617 1847,620.5C 1828.28,647.293 1814.95,676.626 1807,708.5C 1797.09,747.278 1790.43,786.611 1787,826.5C 1784.41,857.462 1782.41,888.462 1781,919.5C 1776.36,936.731 1765.53,942.898 1748.5,938C 1739.19,933.356 1732.69,926.19 1729,916.5C 1721.87,804.081 1713.54,691.747 1704,579.5C 1702.72,567.277 1703.72,555.277 1707,543.5C 1712.9,531.3 1722.4,526.8 1735.5,530C 1750.69,533.869 1758.53,543.702 1759,559.5C 1759.33,580.5 1759.67,601.5 1760,622.5C 1760.26,633.902 1761.26,645.235 1763,656.5C 1778.12,619.722 1799.96,587.556 1828.5,560C 1852.85,539.322 1880.85,527.155 1912.5,523.5 Z"/></g>
<g><path style="opacity:0.983" fill="#000000" d="M 1621.5,525.5 C 1631.07,524.078 1638.91,527.078 1645,534.5C 1653.53,548.957 1658.2,564.624 1659,581.5C 1661.29,612.522 1658.96,643.189 1652,673.5C 1638.41,741.96 1614.74,806.627 1581,867.5C 1566.76,891.142 1548.93,911.642 1527.5,929C 1514.56,938.093 1500.23,942.093 1484.5,941C 1481.38,939.941 1478.38,938.608 1475.5,937C 1464.88,926.694 1457.04,914.528 1452,900.5C 1439.61,863.486 1431.94,825.486 1429,786.5C 1422.9,722.613 1421.23,658.613 1424,594.5C 1429.77,573.726 1443.44,563.059 1465,562.5C 1471.96,562.798 1478.79,563.798 1485.5,565.5C 1482.03,591.712 1479.87,618.045 1479,644.5C 1478.17,688.51 1478.5,732.51 1480,776.5C 1480.86,798.274 1482.86,819.941 1486,841.5C 1487.39,852.323 1490.39,862.656 1495,872.5C 1495.74,873.574 1496.74,874.241 1498,874.5C 1505.9,871.209 1512.57,866.209 1518,859.5C 1541.47,828.228 1559.47,793.895 1572,756.5C 1585.74,717.529 1595.08,677.529 1600,636.5C 1604.23,606.451 1601.39,577.118 1591.5,548.5C 1593.95,544.219 1597.28,540.719 1601.5,538C 1607.81,533.179 1614.47,529.012 1621.5,525.5 Z"/></g>
<g><path style="opacity:0.983" fill="#000000" d="M 1298.5,526.5 C 1333.4,524.309 1359.9,537.976 1378,567.5C 1392.38,594.002 1400.38,622.335 1402,652.5C 1406.96,725.701 1392.96,795.034 1360,860.5C 1345.51,888.659 1325.01,911.493 1298.5,929C 1274.19,942.845 1248.86,945.178 1222.5,936C 1209.95,929.114 1200.45,919.28 1194,906.5C 1187.34,891.522 1183.34,875.855 1182,859.5C 1179.32,786.995 1187.32,715.662 1206,645.5C 1214.28,611.616 1228.94,580.949 1250,553.5C 1263.12,538.861 1279.29,529.861 1298.5,526.5 Z M 1302.5,578.5 C 1299.1,580.037 1295.77,581.87 1292.5,584C 1281.03,596.435 1272.19,610.601 1266,626.5C 1240.93,696.024 1230.59,767.69 1235,841.5C 1236.07,852.448 1238.4,863.115 1242,873.5C 1244.39,878.727 1248.23,882.394 1253.5,884.5C 1260.93,882.744 1267.93,879.911 1274.5,876C 1288.49,865.007 1299.99,851.84 1309,836.5C 1340.82,774.569 1353.16,708.903 1346,639.5C 1344.31,621.402 1338.65,604.736 1329,589.5C 1322.25,580.861 1313.42,577.195 1302.5,578.5 Z"/></g>
<g><path style="opacity:0.994" fill="#000000" d="M 1027.5,1082.5 C 1080.37,1080.39 1130.37,1091.22 1177.5,1115C 1260.31,1164.06 1305.48,1236.9 1313,1333.5C 1313.67,1388.5 1313.67,1443.5 1313,1498.5C 1306.36,1593.34 1262.86,1665.5 1182.5,1715C 1137.97,1738.51 1090.47,1750.01 1040,1749.5C 975.51,1750.78 917.343,1732.61 865.5,1695C 802.493,1644.16 768.66,1577.99 764,1496.5C 763.333,1442.83 763.333,1389.17 764,1335.5C 770.695,1238.91 815.195,1165.75 897.5,1116C 938.361,1094.79 981.694,1083.62 1027.5,1082.5 Z M 1024.5,1199.5 C 996.941,1202.36 973.441,1213.7 954,1233.5C 930.49,1262.55 917.49,1295.89 915,1333.5C 913,1388.17 913,1442.83 915,1497.5C 917.233,1529.87 927.233,1559.53 945,1586.5C 964.661,1613.42 991.161,1628.59 1024.5,1632C 1071.42,1637.28 1108.26,1620.78 1135,1582.5C 1153.67,1551.16 1163,1517.16 1163,1480.5C 1163.91,1431.49 1163.58,1382.49 1162,1333.5C 1160.32,1313.12 1155.65,1293.45 1148,1274.5C 1124.78,1220.29 1083.61,1195.29 1024.5,1199.5 Z"/></g>
<g><path style="opacity:0.993" fill="#000000" d="M 1642.5,1082.5 C 1679.99,1081.76 1716.99,1085.6 1753.5,1094C 1854.19,1121.86 1903.53,1188.03 1901.5,1292.5C 1854.17,1293.5 1806.84,1293.83 1759.5,1293.5C 1759.98,1236.15 1731.65,1204.98 1674.5,1200C 1617.7,1195.98 1578.2,1220.15 1556,1272.5C 1548.34,1292.11 1544.01,1312.44 1543,1333.5C 1542.33,1388.5 1542.33,1443.5 1543,1498.5C 1544.23,1534.53 1555.56,1566.87 1577,1595.5C 1601.33,1622.28 1631.66,1634.62 1668,1632.5C 1694.7,1633.52 1720.54,1629.35 1745.5,1620C 1752.52,1616.96 1759.02,1613.13 1765,1608.5C 1765.5,1570.17 1765.67,1531.83 1765.5,1493.5C 1727.17,1493.5 1688.83,1493.5 1650.5,1493.5C 1650.5,1460.17 1650.5,1426.83 1650.5,1393.5C 1739.17,1393.5 1827.83,1393.5 1916.5,1393.5C 1916.67,1479.17 1916.5,1564.83 1916,1650.5C 1877.76,1693.39 1830.6,1722.23 1774.5,1737C 1724.04,1748.59 1673.04,1751.93 1621.5,1747C 1526.31,1735.42 1457.48,1686.92 1415,1601.5C 1400.44,1567.35 1392.77,1531.68 1392,1494.5C 1391.33,1442.17 1391.33,1389.83 1392,1337.5C 1393.64,1252.05 1427.81,1183.22 1494.5,1131C 1538.93,1099.91 1588.26,1083.75 1642.5,1082.5 Z"/></g>
<g><path style="opacity:0.994" fill="#000000" d="M 2257.5,1082.5 C 2310.37,1080.39 2360.37,1091.22 2407.5,1115C 2490.61,1164.32 2535.77,1237.49 2543,1334.5C 2543.67,1389.17 2543.67,1443.83 2543,1498.5C 2536.36,1593.34 2492.86,1665.51 2412.5,1715C 2367.97,1738.51 2320.47,1750.01 2270,1749.5C 2205.51,1750.78 2147.34,1732.61 2095.5,1695C 2032.79,1644.42 1998.96,1578.59 1994,1497.5C 1993.33,1443.17 1993.33,1388.83 1994,1334.5C 1999.83,1248.31 2037.33,1179.81 2106.5,1129C 2152.41,1099.11 2202.74,1083.61 2257.5,1082.5 Z M 2254.5,1199.5 C 2226.94,1202.36 2203.44,1213.7 2184,1233.5C 2160.49,1262.56 2147.49,1295.89 2145,1333.5C 2143,1388.17 2143,1442.83 2145,1497.5C 2147.23,1529.87 2157.23,1559.53 2175,1586.5C 2194.66,1613.42 2221.16,1628.59 2254.5,1632C 2290.69,1636.59 2322.19,1626.75 2349,1602.5C 2375.19,1572.96 2389.53,1538.29 2392,1498.5C 2393.99,1443.5 2393.99,1388.5 2392,1333.5C 2390.32,1313.12 2385.65,1293.45 2378,1274.5C 2354.78,1220.29 2313.61,1195.29 2254.5,1199.5 Z"/></g>
<g><path style="opacity:0.997" fill="#000000" d="M 314.5,1092.5 C 364.833,1092.5 415.167,1092.5 465.5,1092.5C 465.5,1269.5 465.5,1446.5 465.5,1623.5C 558.167,1623.5 650.833,1623.5 743.5,1623.5C 743.5,1662.17 743.5,1700.83 743.5,1739.5C 600.5,1739.5 457.5,1739.5 314.5,1739.5C 314.5,1523.83 314.5,1308.17 314.5,1092.5 Z"/></g>
<g><path style="opacity:0.963" fill="#000000" d="M 579.5,1945.5 C 595.724,1943.94 611.391,1946.11 626.5,1952C 647.983,1962.78 658.316,1980.28 657.5,2004.5C 649.167,2004.5 640.833,2004.5 632.5,2004.5C 630.91,1979.27 617.41,1966.27 592,1965.5C 571.87,1966.9 557.87,1976.9 550,1995.5C 548.031,2001.01 546.697,2006.68 546,2012.5C 545.087,2032.87 545.42,2053.2 547,2073.5C 552.836,2098.84 568.669,2112.51 594.5,2114.5C 609.067,2115.08 621.567,2110.41 632,2100.5C 632.5,2086.84 632.667,2073.17 632.5,2059.5C 618.833,2059.5 605.167,2059.5 591.5,2059.5C 591.5,2052.83 591.5,2046.17 591.5,2039.5C 613.833,2039.5 636.167,2039.5 658.5,2039.5C 658.667,2062.5 658.5,2085.5 658,2108.5C 637.388,2129.93 612.221,2138.43 582.5,2134C 548.685,2128.52 528.185,2109.02 521,2075.5C 519.431,2054.53 519.098,2033.53 520,2012.5C 522.422,1983.11 536.922,1962.27 563.5,1950C 568.874,1948.16 574.207,1946.66 579.5,1945.5 Z"/></g>
<g><path style="opacity:0.964" fill="#000000" d="M 815.5,1945.5 C 853.336,1941.66 880.503,1956.66 897,1990.5C 899.555,1996.94 901.222,2003.61 902,2010.5C 902.667,2030.17 902.667,2049.83 902,2069.5C 895.915,2105.92 874.749,2127.42 838.5,2134C 793.531,2136.93 766.031,2116.43 756,2072.5C 753.742,2049.12 754.075,2025.78 757,2002.5C 764.948,1971.38 784.448,1952.38 815.5,1945.5 Z M 821.5,1966.5 C 816.851,1967.67 812.184,1969.17 807.5,1971C 791.415,1981.31 782.582,1996.14 781,2015.5C 780.333,2031.83 780.333,2048.17 781,2064.5C 782.582,2083.86 791.415,2098.69 807.5,2109C 844.158,2119.76 866.991,2106.59 876,2069.5C 878.246,2048.11 877.913,2026.78 875,2005.5C 867.464,1978.47 849.63,1965.47 821.5,1966.5 Z"/></g>
<g><path style="opacity:0.959" fill="#000000" d="M 1250.5,1945.5 C 1274.76,1942.1 1295.59,1948.76 1313,1965.5C 1321.98,1975.8 1326.15,1987.8 1325.5,2001.5C 1317.17,2001.5 1308.83,2001.5 1300.5,2001.5C 1297.97,1978.97 1285.3,1966.97 1262.5,1965.5C 1241.81,1965.05 1229.81,1974.88 1226.5,1995C 1227.49,2004.32 1231.83,2011.66 1239.5,2017C 1253.48,2024.16 1268.15,2029.5 1283.5,2033C 1298.52,2038.03 1310.68,2046.86 1320,2059.5C 1331.88,2083.33 1328.05,2104.16 1308.5,2122C 1291.32,2132.64 1272.65,2136.64 1252.5,2134C 1233.4,2132.03 1217.56,2123.87 1205,2109.5C 1198.27,2100.25 1195.44,2089.92 1196.5,2078.5C 1204.83,2078.5 1213.17,2078.5 1221.5,2078.5C 1221.82,2094.96 1229.82,2105.8 1245.5,2111C 1260.27,2116.16 1274.6,2115.16 1288.5,2108C 1299.61,2099.75 1303.11,2088.92 1299,2075.5C 1293.89,2065.05 1285.72,2058.22 1274.5,2055C 1258.2,2051.01 1242.53,2045.34 1227.5,2038C 1201.05,2021.39 1194.55,1998.89 1208,1970.5C 1218.65,1956.1 1232.82,1947.76 1250.5,1945.5 Z"/></g>
<g><path style="opacity:0.957" fill="#000000" d="M 999.5,1947.5 C 1036.83,1947.5 1074.17,1947.5 1111.5,1947.5C 1111.5,1954.5 1111.5,1961.5 1111.5,1968.5C 1082.83,1968.5 1054.17,1968.5 1025.5,1968.5C 1025.5,1987.83 1025.5,2007.17 1025.5,2026.5C 1050.5,2026.5 1075.5,2026.5 1100.5,2026.5C 1100.5,2033.5 1100.5,2040.5 1100.5,2047.5C 1075.5,2047.5 1050.5,2047.5 1025.5,2047.5C 1025.5,2068.83 1025.5,2090.17 1025.5,2111.5C 1054.83,2111.5 1084.17,2111.5 1113.5,2111.5C 1113.5,2118.17 1113.5,2124.83 1113.5,2131.5C 1075.5,2131.5 1037.5,2131.5 999.5,2131.5C 999.5,2070.17 999.5,2008.83 999.5,1947.5 Z"/></g>
<g><path style="opacity:0.972" fill="#000000" d="M 1548.5,1947.5 C 1556.83,1947.5 1565.17,1947.5 1573.5,1947.5C 1573.5,1975.17 1573.5,2002.83 1573.5,2030.5C 1602.83,2030.5 1632.17,2030.5 1661.5,2030.5C 1661.5,2002.83 1661.5,1975.17 1661.5,1947.5C 1670.17,1947.5 1678.83,1947.5 1687.5,1947.5C 1687.5,2008.83 1687.5,2070.17 1687.5,2131.5C 1678.83,2131.5 1670.17,2131.5 1661.5,2131.5C 1661.5,2104.83 1661.5,2078.17 1661.5,2051.5C 1632.17,2051.5 1602.83,2051.5 1573.5,2051.5C 1573.5,2078.17 1573.5,2104.83 1573.5,2131.5C 1565.17,2131.5 1556.83,2131.5 1548.5,2131.5C 1548.5,2070.17 1548.5,2008.83 1548.5,1947.5 Z"/></g>
<g><path style="opacity:0.971" fill="#000000" d="M 1791.5,1947.5 C 1828.83,1947.5 1866.17,1947.5 1903.5,1947.5C 1903.5,1954.5 1903.5,1961.5 1903.5,1968.5C 1874.5,1968.5 1845.5,1968.5 1816.5,1968.5C 1816.5,1987.83 1816.5,2007.17 1816.5,2026.5C 1841.83,2026.5 1867.17,2026.5 1892.5,2026.5C 1892.5,2033.5 1892.5,2040.5 1892.5,2047.5C 1867.17,2047.5 1841.83,2047.5 1816.5,2047.5C 1816.5,2068.83 1816.5,2090.17 1816.5,2111.5C 1845.83,2111.5 1875.17,2111.5 1904.5,2111.5C 1904.5,2118.17 1904.5,2124.83 1904.5,2131.5C 1866.83,2131.5 1829.17,2131.5 1791.5,2131.5C 1791.5,2070.17 1791.5,2008.83 1791.5,1947.5 Z"/></g>
<g><path style="opacity:0.955" fill="#000000" d="M 2220.5,1947.5 C 2258.17,1947.5 2295.83,1947.5 2333.5,1947.5C 2333.5,1954.5 2333.5,1961.5 2333.5,1968.5C 2304.5,1968.5 2275.5,1968.5 2246.5,1968.5C 2246.5,1987.83 2246.5,2007.17 2246.5,2026.5C 2271.5,2026.5 2296.5,2026.5 2321.5,2026.5C 2321.5,2033.5 2321.5,2040.5 2321.5,2047.5C 2296.5,2047.5 2271.5,2047.5 2246.5,2047.5C 2246.5,2068.83 2246.5,2090.17 2246.5,2111.5C 2275.83,2111.5 2305.17,2111.5 2334.5,2111.5C 2334.5,2118.17 2334.5,2124.83 2334.5,2131.5C 2296.5,2131.5 2258.5,2131.5 2220.5,2131.5C 2220.5,2070.17 2220.5,2008.83 2220.5,1947.5 Z"/></g>
<g><path style="opacity:0.981" fill="#000000" d="M 1995.5,1948.5 C 2023.54,1948.05 2051.54,1948.55 2079.5,1950C 2109.7,1957.22 2123.2,1976.39 2120,2007.5C 2118.43,2018.14 2113.6,2026.98 2105.5,2034C 2101.83,2036.5 2098.17,2039 2094.5,2041.5C 2108.39,2047.27 2116.56,2057.6 2119,2072.5C 2119.19,2086.2 2119.85,2099.86 2121,2113.5C 2121.75,2118.99 2124.08,2123.66 2128,2127.5C 2128.49,2128.79 2128.66,2130.13 2128.5,2131.5C 2119.16,2131.67 2109.83,2131.5 2100.5,2131C 2097.29,2126.37 2095.46,2121.2 2095,2115.5C 2094.88,2102.13 2094.21,2088.79 2093,2075.5C 2089.19,2062.69 2080.69,2055.19 2067.5,2053C 2051.84,2052.5 2036.17,2052.33 2020.5,2052.5C 2020.5,2078.83 2020.5,2105.17 2020.5,2131.5C 2012.17,2131.5 2003.83,2131.5 1995.5,2131.5C 1995.5,2070.5 1995.5,2009.5 1995.5,1948.5 Z M 2020.5,1968.5 C 2020.5,1989.83 2020.5,2011.17 2020.5,2032.5C 2033.84,2032.67 2047.17,2032.5 2060.5,2032C 2082.31,2032.18 2093.65,2021.51 2094.5,2000C 2094.08,1982.24 2085.08,1971.91 2067.5,1969C 2051.84,1968.5 2036.17,1968.33 2020.5,1968.5 Z"/></g>
<g><path style="opacity:0.934" fill="#000000" d="M 347.5,2043.5 C 372.5,2043.5 397.5,2043.5 422.5,2043.5C 422.5,2050.5 422.5,2057.5 422.5,2064.5C 397.5,2064.5 372.5,2064.5 347.5,2064.5C 347.5,2057.5 347.5,2050.5 347.5,2043.5 Z"/></g>
<g><path style="opacity:0.934" fill="#000000" d="M 2424.5,2043.5 C 2449.5,2043.5 2474.5,2043.5 2499.5,2043.5C 2499.5,2050.5 2499.5,2057.5 2499.5,2064.5C 2474.5,2064.5 2449.5,2064.5 2424.5,2064.5C 2424.5,2057.5 2424.5,2050.5 2424.5,2043.5 Z"/></g>
</svg>
